<svg xmlns="http://www.w3.org/2000/svg" width="100" height="100" viewBox="0 0 100 100" preserveAspectRatio="xMidYMid meet"><rect fill="#ffffff" fill-opacity="1" x="0" y="0" width="100" height="100"/><path fill="#e5e5e5" d="M39.5 8L50 18.5L39.5 29L29 18.5ZM71 18.5L60.5 29L50 18.5L60.5 8ZM60.5 92L50 81.5L60.5 71L71 81.5ZM29 81.5L39.5 71L50 81.5L39.5 92ZM18.5 29L29 39.5L18.5 50L8 39.5ZM92 39.5L81.5 50L71 39.5L81.5 29ZM81.5 71L71 60.5L81.5 50L92 60.5ZM8 60.5L18.5 50L29 60.5L18.5 71Z"/><path fill="#8d9932" d="M29 29L8 29L8 8ZM71 29L71 8L92 8ZM71 71L92 71L92 92ZM29 71L29 92L8 92Z"/><path fill="#c0cc66" d="M29 29L50 29L50 39L39 50L29 50ZM71 29L71 50L61 50L50 39L50 29ZM71 71L50 71L50 61L61 50L71 50ZM29 71L29 50L39 50L50 61L50 71Z"/></svg>